# 3ds Max Wavefront OBJ Exporter v0.97b - (c)2007 guruware
# File Created: 21.03.2011 19:02:58

#
# object Plane001
#

v  -39.8787 11.0000 -3.4744
v  -39.8787 22.0000 -3.4744
v  -17.8787 22.0000 -3.4744
v  -17.8787 11.0000 -3.4744
v  4.1213 22.0000 -3.4744
v  4.1213 11.0000 -3.4744
v  26.1213 22.0000 -3.4744
v  26.1213 11.0000 -3.4744
v  48.1213 22.0000 -3.4744
v  48.1213 11.0000 -3.4744
v  -39.8787 0.0000 -3.4744
v  -17.8787 0.0000 -3.4744
v  4.1213 0.0000 -3.4744
v  26.1213 0.0000 -3.4744
v  48.1213 0.0000 -3.4744
v  -39.8787 -11.0000 -3.4744
v  -17.8787 -11.0000 -3.4744
v  4.1213 -11.0000 -3.4744
v  26.1213 -11.0000 -3.4744
v  48.1213 -11.0000 -3.4744
v  -39.8787 -22.0000 -3.4744
v  -17.8787 -22.0000 -3.4744
v  4.1213 -22.0000 -3.4744
v  26.1213 -22.0000 -3.4744
v  48.1213 -22.0000 -3.4744
# 25 vertices

vn 0.0000 -0.0000 -1.0000
# 1 vertex normals

g Plane001
s 1
f 1//1 2//1 3//1 4//1 
f 4//1 3//1 5//1 6//1 
f 6//1 5//1 7//1 8//1 
f 8//1 7//1 9//1 10//1 
f 11//1 1//1 4//1 12//1 
f 12//1 4//1 6//1 13//1 
f 13//1 6//1 8//1 14//1 
f 14//1 8//1 10//1 15//1 
f 16//1 11//1 12//1 17//1 
f 17//1 12//1 13//1 18//1 
f 18//1 13//1 14//1 19//1 
f 19//1 14//1 15//1 20//1 
f 21//1 16//1 17//1 22//1 
f 22//1 17//1 18//1 23//1 
f 23//1 18//1 19//1 24//1 
f 24//1 19//1 20//1 25//1 
# 16 polygons

