# 3ds Max Wavefront OBJ Exporter v0.97b - (c)2007 guruware
# File Created: 02.12.2010 19:51:12

#
# object Cylinder01
#

v  27.5000 -90.0000 -0.0000
v  27.4883 -90.0000 -0.0666
v  27.4883 -89.8725 -0.0666
v  27.4883 -72.0000 -0.0666
v  -27.4883 -72.1274 -0.0666
v  -27.4883 -90.0000 -0.0666
v  -27.5000 -72.0000 -0.0000
v  -27.4883 -72.0000 -0.0666
v  27.5000 -72.0000 -0.0000
v  27.4883 -71.8725 -0.0666
v  27.4883 -54.0000 -0.0666
v  -27.4883 -54.1274 -0.0666
v  -27.5000 -54.0000 -0.0000
v  -27.4883 -54.0000 -0.0666
v  27.5000 -54.0000 -0.0000
v  27.4883 -53.8725 -0.0666
v  27.4883 -36.0000 -0.0666
v  -27.4883 -36.1274 -0.0666
v  -27.5000 -36.0000 -0.0000
v  -27.4883 -36.0000 -0.0666
v  27.5000 -36.0000 -0.0000
v  27.4883 -35.8725 -0.0666
v  27.4883 -18.0000 -0.0666
v  -27.4883 -18.1274 -0.0666
v  -27.5000 -18.0000 -0.0000
v  -27.4883 -18.0000 -0.0666
v  27.5000 -18.0000 -0.0000
v  27.4883 -17.8725 -0.0666
v  27.4883 0.0000 -0.0666
v  -27.4883 -0.1274 -0.0666
v  -27.5000 0.0000 -0.0000
v  -27.4883 0.0000 -0.0666
v  -27.5000 -90.0000 -0.0000
v  27.5000 0.0000 -0.0000
# 34 vertices

vn 0.9848 0.0000 -0.1736
vn -0.9848 0.0000 -0.1737
vn 0.0000 0.0000 1.0000
# 3 vertex normals

g Cylinder01
f 1//1 2//1 3//1 4//1 
f 5//2 6//2 7//2 8//2 
f 9//1 4//1 10//1 11//1 
f 12//2 8//2 13//2 14//2 
f 15//1 11//1 16//1 17//1 
f 18//2 14//2 19//2 20//2 
f 21//1 17//1 22//1 23//1 
f 24//2 20//2 25//2 26//2 
f 27//1 23//1 28//1 29//1 
f 30//2 26//2 31//2 32//2 
f 1//1 4//1 9//1 
f 6//2 33//2 7//2 
f 9//1 11//1 15//1 
f 8//2 7//2 13//2 
f 15//1 17//1 21//1 
f 14//2 13//2 19//2 
f 21//1 23//1 27//1 
f 20//2 19//2 25//2 
f 27//1 29//1 34//1 
f 26//2 25//2 31//2 
f 6//3 2//3 29//3 30//3 
# 11 polygons - 10 triangles

#
# object Spindle01
#

#
# object Spindle02
#

v  0.1572 105.0000 -0.0666
v  0.1472 105.0000 -0.0666
v  0.1522 105.0000 -0.0579
v  0.1622 105.0000 -0.0579
v  0.1672 105.0000 -0.0666
v  -5.4968 84.0000 9.7264
v  11.4652 84.0000 -0.0666
v  -45.0448 21.0000 -0.0666
v  -33.7468 42.0000 -0.0666
v  -56.3428 0.0000 -0.0666
v  -28.0928 0.0000 48.8638
v  28.4072 0.0000 48.8638
v  56.6572 0.0000 -0.0666
v  0.1572 0.0000 -0.0666
v  22.7632 63.0000 -0.0666
v  34.0612 42.0000 -0.0666
v  45.3592 21.0000 -0.0666
# 17 vertices

vn 0.0000 1.0000 -0.0000
vn -0.7849 0.4224 0.4533
vn 0.7849 0.4223 0.4533
vn -0.8132 0.4307 -0.3914
vn -0.8147 0.4208 -0.3990
vn -0.8132 0.4307 -0.3915
vn 1.0000 0.0000 -0.0000
vn -0.6748 0.3630 -0.6426
vn -0.6747 0.3630 -0.6426
vn 0.0000 0.0000 -1.0000
vn 0.0000 -0.0000 -1.0000
vn 0.0000 0.0000 1.0000
vn -0.0000 -0.0000 -1.0000
# 13 vertex normals

g Spindle02
f 35//4 36//4 37//4 
f 35//4 37//4 38//4 
f 35//4 38//4 39//4 
f 36//5 40//5 37//5 
f 38//6 41//6 39//6 
f 42//7 42//8 42//9 43//10 
f 44//11 44//10 44//12 42//9 
f 44//10 44//10 44//10 44//10 
f 44//10 44//10 45//10 45//10 
f 45//10 45//10 46//10 46//10 
f 46//10 46//10 47//10 47//10 
f 39//13 41//14 48//13 35//13 
f 35//15 48//15 41//15 39//15 
f 49//14 50//14 48//13 41//14 
f 41//15 48//15 50//15 49//15 
f 51//13 47//13 48//13 50//14 
f 50//15 48//15 47//15 51//15 
f 47//13 47//10 48//10 48//13 
f 48//15 48//10 47//10 47//15 
f 44//4 44//4 44//4 
f 42//8 44//11 42//9 
f 44//10 44//10 44//10 
f 44//4 47//4 44//4 
f 39//16 47//16 44//16 
# 14 polygons - 10 triangles

